<svg width="24" height="24" viewBox="0 0 24 24" fill="none" xmlns="http://www.w3.org/2000/svg">
<path d="M14.975 12C14.975 12.1333 14.95 12.2626 14.9 12.388C14.85 12.5133 14.7833 12.6173 14.7 12.7L10.1 17.3C9.91665 17.4833 9.68332 17.575 9.39999 17.575C9.11665 17.575 8.88332 17.4833 8.69999 17.3C8.51665 17.1166 8.42499 16.8833 8.42499 16.6C8.42499 16.3166 8.51665 16.0833 8.69999 15.9L12.6 12L8.69999 8.09995C8.51665 7.91662 8.42499 7.68328 8.42499 7.39995C8.42499 7.11662 8.51665 6.88329 8.69999 6.69995C8.88332 6.51662 9.11665 6.42495 9.39999 6.42495C9.68332 6.42495 9.91665 6.51662 10.1 6.69995L14.7 11.3C14.8 11.4 14.871 11.5083 14.913 11.625C14.955 11.7416 14.9757 11.8666 14.975 12Z"/>
</svg>
