<?xml version="1.0" standalone="no"?>
<!DOCTYPE svg PUBLIC "-//W3C//DTD SVG 20010904//EN"
 "http://www.w3.org/TR/2001/REC-SVG-20010904/DTD/svg10.dtd">
<svg version="1.0" xmlns="http://www.w3.org/2000/svg"
 width="700.000000pt" height="700.000000pt" viewBox="0 0 700.000000 700.000000"
 preserveAspectRatio="xMidYMid meet">
<metadata>
Created by potrace 1.14, written by Peter Selinger 2001-2017
</metadata>
<g transform="translate(0.000000,700.000000) scale(0.100000,-0.100000)"
fill="#000000" stroke="none">
<path d="M3378 6415 c-2 -1 -48 -5 -103 -9 -55 -3 -118 -9 -140 -12 -91 -12
-224 -36 -285 -50 -36 -9 -72 -17 -81 -19 -51 -11 -240 -73 -339 -112 -261
-103 -488 -232 -720 -412 -123 -95 -132 -103 -275 -246 -176 -176 -267 -291
-434 -550 -57 -87 -186 -357 -234 -488 -74 -199 -133 -434 -153 -600 -4 -28
-8 -54 -9 -57 -8 -13 -19 -227 -19 -360 0 -235 12 -360 55 -570 35 -169 29
-148 68 -277 66 -218 170 -453 292 -656 71 -118 103 -164 212 -304 63 -81 82
-100 92 -90 6 7 281 278 609 602 1071 1058 1140 1126 1191 1165 228 176 560
177 789 1 28 -21 168 -155 311 -296 143 -141 532 -525 864 -853 332 -329 612
-605 621 -615 16 -17 21 -12 97 85 187 241 306 445 416 713 60 146 132 381
151 490 3 17 7 39 9 50 53 238 67 650 32 915 -56 417 -191 806 -400 1150 -314
517 -799 939 -1344 1169 -118 49 -152 63 -161 65 -3 1 -41 13 -85 28 -207 68
-411 110 -645 133 -64 7 -377 15 -382 10z m1227 -1319 c215 -21 420 -206 480
-432 15 -55 21 -177 12 -234 -30 -184 -150 -346 -320 -430 -387 -189 -837 90
-837 520 0 38 5 93 11 122 15 73 80 203 129 261 51 58 146 126 220 157 63 26
181 49 225 44 17 -2 53 -5 80 -8z"/>
<path d="M3440 3058 c-60 -17 35 74 -1089 -1037 -348 -344 -658 -650 -687
-679 -30 -29 -54 -56 -53 -60 0 -9 79 -71 195 -155 322 -231 708 -401 1099
-481 66 -14 143 -28 170 -31 28 -4 61 -8 75 -11 130 -22 632 -22 702 1 7 2 36
6 63 9 145 16 358 67 535 129 265 93 458 190 685 344 121 82 254 184 255 195
0 5 -49 56 -109 115 -60 60 -353 349 -651 643 -888 878 -1002 989 -1035 1004
-42 20 -113 27 -155 14z"/>
</g>
</svg>
