<svg width="43" height="24" viewBox="0 0 43 24" fill="none" xmlns="http://www.w3.org/2000/svg">
<path d="M33.335 13.3333H9.33504C8.58838 13.3333 8.00171 12.7466 8.00171 12C8.00171 11.2533 8.58838 10.6666 9.33504 10.6666H33.335C34.0817 10.6666 34.6684 11.2533 34.6684 12C34.6684 12.7466 34.0817 13.3333 33.335 13.3333Z" />
<path d="M26.6683 22.6667C26.4934 22.6688 26.32 22.6343 26.1593 22.5655C25.9986 22.4966 25.854 22.3948 25.735 22.2667C25.2016 21.7334 25.2016 20.9067 25.735 20.3734L34.135 11.9734L25.735 3.57336C25.2016 3.04003 25.2016 2.21336 25.735 1.68003C26.2683 1.1467 27.095 1.1467 27.6283 1.68003L36.9616 11.0134C37.495 11.5467 37.495 12.3734 36.9616 12.9067L27.6283 22.24C27.3616 22.5067 27.015 22.64 26.695 22.64L26.6683 22.6667Z" />
</svg>
