<svg width="30" height="30" viewBox="0 0 30 30" fill="none" xmlns="http://www.w3.org/2000/svg">
<g clip-path="url(#clip0_4_112)">
<path d="M15 23.75C15.3061 23.75 15.6016 23.8624 15.8304 24.0659C16.0592 24.2693 16.2054 24.5497 16.2412 24.8537L16.25 25V26.25C16.2496 26.5686 16.1276 26.875 15.9089 27.1067C15.6902 27.3384 15.3913 27.4778 15.0732 27.4965C14.7552 27.5151 14.442 27.4117 14.1977 27.2072C13.9534 27.0027 13.7963 26.7126 13.7587 26.3963L13.75 26.25V25C13.75 24.6685 13.8817 24.3505 14.1161 24.1161C14.3505 23.8817 14.6684 23.75 15 23.75ZM22.8912 21.1375L23.0087 21.2412L23.8837 22.1163C24.1079 22.3412 24.238 22.643 24.2477 22.9605C24.2574 23.2779 24.1459 23.5871 23.9359 23.8253C23.7259 24.0636 23.433 24.2129 23.1169 24.243C22.8007 24.2731 22.4849 24.1818 22.2337 23.9875L22.1162 23.8838L21.2412 23.0087C21.0255 22.7934 20.8959 22.5067 20.8768 22.2025C20.8577 21.8983 20.9503 21.5976 21.1374 21.357C21.3244 21.1163 21.593 20.9523 21.8925 20.8958C22.192 20.8393 22.5018 20.8941 22.7637 21.05L22.8912 21.1375ZM8.75871 21.2412C8.97393 21.4565 9.10322 21.7429 9.12232 22.0466C9.14142 22.3504 9.04902 22.6507 8.86246 22.8913L8.75871 23.0087L7.88371 23.8838C7.65876 24.1079 7.35691 24.2381 7.03948 24.2478C6.72204 24.2575 6.41282 24.146 6.17461 23.9359C5.9364 23.7259 5.78708 23.4331 5.75696 23.1169C5.72684 22.8008 5.81819 22.485 6.01246 22.2338L6.11621 22.1163L6.99121 21.2412C7.22562 21.0069 7.5435 20.8753 7.87496 20.8753C8.20641 20.8753 8.5243 21.0069 8.75871 21.2412ZM4.99996 13.75C5.31856 13.7504 5.625 13.8723 5.85667 14.0911C6.08834 14.3098 6.22775 14.6087 6.24642 14.9267C6.26509 15.2448 6.16161 15.558 5.95713 15.8023C5.75264 16.0466 5.46258 16.2036 5.14621 16.2413L4.99996 16.25H3.74996C3.43136 16.2496 3.12492 16.1277 2.89325 15.9089C2.66158 15.6902 2.52216 15.3913 2.50349 15.0733C2.48482 14.7552 2.5883 14.442 2.79279 14.1977C2.99728 13.9534 3.28734 13.7964 3.60371 13.7587L3.74996 13.75H4.99996ZM26.25 13.75C26.5686 13.7504 26.875 13.8723 27.1067 14.0911C27.3383 14.3098 27.4778 14.6087 27.4964 14.9267C27.5151 15.2448 27.4116 15.558 27.2071 15.8023C27.0026 16.0466 26.7126 16.2036 26.3962 16.2413L26.25 16.25H25C24.6814 16.2496 24.3749 16.1277 24.1432 15.9089C23.9116 15.6902 23.7722 15.3913 23.7535 15.0733C23.7348 14.7552 23.8383 14.442 24.0428 14.1977C24.2473 13.9534 24.5373 13.7964 24.8537 13.7587L25 13.75H26.25ZM7.76621 6.0125L7.88371 6.11625L8.75871 6.99125C8.98289 7.2162 9.11305 7.51804 9.12274 7.83548C9.13244 8.15292 9.02094 8.46214 8.8109 8.70035C8.60086 8.93855 8.30802 9.08788 7.99187 9.118C7.67571 9.14812 7.35995 9.05677 7.10871 8.8625L6.99121 8.75875L6.11621 7.88375C5.90132 7.66835 5.77237 7.38197 5.75354 7.07829C5.73471 6.77461 5.82728 6.47449 6.01391 6.23419C6.20054 5.99389 6.4684 5.82991 6.76729 5.77299C7.06618 5.71607 7.37557 5.77012 7.63746 5.925L7.76621 6.0125ZM23.8837 6.11625C24.0989 6.33149 24.2282 6.61787 24.2473 6.92165C24.2664 7.22543 24.174 7.52574 23.9875 7.76625L23.8837 7.88375L23.0087 8.75875C22.7838 8.98293 22.4819 9.11309 22.1645 9.12279C21.847 9.13248 21.5378 9.02098 21.2996 8.81094C21.0614 8.6009 20.9121 8.30806 20.882 7.99191C20.8518 7.67575 20.9432 7.35999 21.1375 7.10875L21.2412 6.99125L22.1162 6.11625C22.3506 5.88191 22.6685 5.75027 23 5.75027C23.3314 5.75027 23.6493 5.88191 23.8837 6.11625ZM15 2.5C15.3061 2.50004 15.6016 2.61245 15.8304 2.81589C16.0592 3.01934 16.2054 3.29969 16.2412 3.60375L16.25 3.75V5C16.2496 5.3186 16.1276 5.62504 15.9089 5.85671C15.6902 6.08838 15.3913 6.22779 15.0732 6.24646C14.7552 6.26514 14.442 6.16166 14.1977 5.95717C13.9534 5.75268 13.7963 5.46262 13.7587 5.14625L13.75 5V3.75C13.75 3.41848 13.8817 3.10054 14.1161 2.86612C14.3505 2.6317 14.6684 2.5 15 2.5ZM15 8.75C16.2246 8.74993 17.4222 9.10961 18.4441 9.78437C19.466 10.4591 20.2672 11.4192 20.7482 12.5455C21.2291 13.6717 21.3686 14.9143 21.1493 16.1191C20.93 17.3239 20.3616 18.4378 19.5147 19.3223C18.6678 20.2069 17.5798 20.8231 16.3856 21.0945C15.1915 21.366 13.9439 21.2806 12.7979 20.8491C11.6518 20.4175 10.6578 19.6588 9.93928 18.6672C9.22075 17.6756 8.80936 16.4947 8.75621 15.2712L8.74996 15L8.75621 14.7288C8.82611 13.1197 9.51447 11.5997 10.6777 10.4858C11.841 9.37193 13.3894 8.75009 15 8.75Z"/>
</g>
<defs>
<clipPath id="clip0_4_112">
<rect width="30" height="30" fill="white"/>
</clipPath>
</defs>
</svg>
