<svg viewBox="0 0 75 29" fill="none" xmlns="http://www.w3.org/2000/svg">
<path d="M10.64 20.24C9.46667 20.24 8.44 19.9867 7.56 19.48C6.68 18.9733 6 18.26 5.52 17.34C5.04 16.4067 4.8 15.3133 4.8 14.06C4.8 12.6867 5.09333 11.4667 5.68 10.4C6.26667 9.33334 7.09333 8.50667 8.16 7.92C9.22667 7.32 10.4467 7.02 11.82 7.02C12.3133 7.02 12.8467 7.06 13.42 7.14C13.9933 7.20667 14.4867 7.28 14.9 7.36C15.3133 7.42667 15.58 7.47334 15.7 7.5L15.78 7.62C15.7533 7.7 15.7067 7.89334 15.64 8.2C15.5733 8.50667 15.5 8.90667 15.42 9.4C15.3533 9.89334 15.3 10.4133 15.26 10.96L14.32 11.04C14.3333 10.9733 14.3467 10.8467 14.36 10.66C14.3733 10.46 14.38 10.2267 14.38 9.96C14.38 9.34667 14.14 8.9 13.66 8.62C13.1933 8.34 12.4267 8.2 11.36 8.2C9.84 8.2 8.65333 8.66 7.8 9.58C6.96 10.4867 6.54 11.7667 6.54 13.42C6.54 14.58 6.72667 15.6 7.1 16.48C7.47333 17.36 8.00667 18.04 8.7 18.52C9.39333 19 10.1933 19.24 11.1 19.24C11.58 19.24 12.02 19.1867 12.42 19.08C12.82 18.96 13.1533 18.8333 13.42 18.7C13.7 18.5667 13.84 18.4933 13.84 18.48V16.04C13.84 15.5867 13.7667 15.2933 13.62 15.16C13.4867 15.0267 13.1933 14.96 12.74 14.96H11.36L11.32 14.88L11.5 13.88C11.66 13.8933 12 13.9133 12.52 13.94C13.04 13.9533 13.5467 13.96 14.04 13.96C14.4 13.96 14.7533 13.9467 15.1 13.92C15.4467 13.8933 15.6667 13.8733 15.76 13.86L15.84 14.3C15.6 14.5 15.4333 14.82 15.34 15.26C15.26 15.6867 15.22 16.3933 15.22 17.38C15.22 18.1533 15.2667 18.74 15.36 19.14L15.24 19.32C15.24 19.3333 15 19.4267 14.52 19.6C14.0533 19.76 13.4733 19.9067 12.78 20.04C12.1 20.1733 11.3867 20.24 10.64 20.24ZM22.9598 20.04L23.0198 19.32C23.5798 19.28 23.9532 19.22 24.1398 19.14C24.3398 19.06 24.4398 18.9267 24.4398 18.74C24.4398 18.5267 24.3932 18.3 24.2998 18.06L23.8198 16.52C23.5532 16.5067 22.9998 16.5 22.1598 16.5C21.7732 16.5 21.1998 16.54 20.4398 16.62L19.8798 18.1C19.7865 18.4067 19.7398 18.5933 19.7398 18.66C19.7398 18.8733 19.8132 19.0267 19.9598 19.12C20.1065 19.2133 20.3465 19.26 20.6798 19.26H21.5398L21.5998 19.34L21.4798 20.1C21.3465 20.0867 21.0398 20.0667 20.5598 20.04C20.0932 20.0133 19.6332 20 19.1798 20C18.7532 20 18.3665 20.0067 18.0198 20.02C17.6865 20.0333 17.4598 20.04 17.3398 20.04L17.4598 19.22C17.7532 19.18 17.9865 19.08 18.1598 18.92C18.3332 18.7467 18.5065 18.46 18.6798 18.06L21.8198 10.12L23.2398 9.86L23.3798 9.88C23.3798 9.93334 23.6798 10.9867 24.2798 13.04C24.8932 15.0933 25.4398 16.7933 25.9198 18.14C26.0532 18.5267 26.2198 18.8 26.4198 18.96C26.6332 19.1067 26.9665 19.2 27.4198 19.24L27.4598 19.32L27.3598 20.04C27.2265 20.04 26.9798 20.0333 26.6198 20.02C26.2598 20.0067 25.8998 20 25.5398 20C24.9932 20 24.4732 20.02 23.9798 20.06C23.4865 20.1 23.1665 20.1267 23.0198 20.14L22.9598 20.04ZM22.1198 15.68C22.5865 15.68 23.0732 15.6533 23.5798 15.6L22.3598 11.72H22.2198L20.7598 15.68H22.1198ZM28.8752 19.32C29.3018 19.2533 29.5885 19.1333 29.7352 18.96C29.8952 18.7733 29.9752 18.4533 29.9752 18L29.9952 11.66C29.9952 11.3267 29.9552 11.1067 29.8752 11C29.7952 10.88 29.6352 10.82 29.3952 10.82L28.8552 10.84L28.7952 10.76L28.9152 10C28.9818 10 29.1818 10.0067 29.5152 10.02C29.8485 10.0333 30.2952 10.04 30.8552 10.04C31.1485 10.04 31.5085 10.02 31.9352 9.98C32.3752 9.94 32.6618 9.91334 32.7952 9.9L32.7152 10.74C32.3552 10.78 32.1018 10.8467 31.9552 10.94C31.8085 11.02 31.7218 11.1267 31.6952 11.26C31.6685 11.3933 31.6352 11.6667 31.5952 12.08C31.4618 13.8667 31.3952 15.8467 31.3952 18.02C31.3952 18.3533 31.4218 18.6 31.4752 18.76C31.5418 18.9067 31.6618 19.0067 31.8352 19.06C32.0218 19.1133 32.3085 19.14 32.6952 19.14C33.3352 19.14 33.8018 19.0867 34.0952 18.98C34.4018 18.8733 34.6285 18.6667 34.7752 18.36C34.9352 18.04 35.0752 17.54 35.1952 16.86L36.0752 16.76L36.1352 16.88C36.1085 17.0533 36.0418 17.4533 35.9352 18.08C35.8418 18.6933 35.7552 19.34 35.6752 20.02L35.5752 20.14C35.2685 20.1267 34.6152 20.1 33.6152 20.06C32.6285 20.02 31.7952 20 31.1152 20C30.5818 20 30.0818 20.02 29.6152 20.06C29.1618 20.1133 28.8752 20.1467 28.7552 20.16L28.8752 19.32ZM37.3322 19.32C37.7589 19.2533 38.0455 19.1333 38.1922 18.96C38.3522 18.7733 38.4322 18.4533 38.4322 18L38.4522 11.66C38.4522 11.3267 38.4122 11.1067 38.3322 11C38.2522 10.88 38.0922 10.82 37.8522 10.82L37.3122 10.84L37.2522 10.76L37.3722 10C37.4389 10 37.6389 10.0067 37.9722 10.02C38.3055 10.0333 38.7522 10.04 39.3122 10.04C39.6055 10.04 39.9655 10.02 40.3922 9.98C40.8322 9.94 41.1189 9.91334 41.2522 9.9L41.1722 10.74C40.8122 10.78 40.5589 10.8467 40.4122 10.94C40.2655 11.02 40.1789 11.1267 40.1522 11.26C40.1255 11.3933 40.0922 11.6667 40.0522 12.08C39.9189 13.8667 39.8522 15.8467 39.8522 18.02C39.8522 18.3533 39.8789 18.6 39.9322 18.76C39.9989 18.9067 40.1189 19.0067 40.2922 19.06C40.4789 19.1133 40.7655 19.14 41.1522 19.14C41.7922 19.14 42.2589 19.0867 42.5522 18.98C42.8589 18.8733 43.0855 18.6667 43.2322 18.36C43.3922 18.04 43.5322 17.54 43.6522 16.86L44.5322 16.76L44.5922 16.88C44.5655 17.0533 44.4989 17.4533 44.3922 18.08C44.2989 18.6933 44.2122 19.34 44.1322 20.02L44.0322 20.14C43.7255 20.1267 43.0722 20.1 42.0722 20.06C41.0855 20.02 40.2522 20 39.5722 20C39.0389 20 38.5389 20.02 38.0722 20.06C37.6189 20.1133 37.3322 20.1467 37.2122 20.16L37.3322 19.32ZM45.6292 19.32C46.1226 19.2667 46.4559 19.1467 46.6292 18.96C46.8026 18.7733 46.8892 18.4533 46.8892 18L46.9092 11.66C46.9092 11.3267 46.8692 11.1067 46.7892 11C46.7092 10.88 46.5492 10.82 46.3092 10.82L45.7692 10.84L45.7292 10.76L45.8492 10C46.0092 10 46.3226 10.0067 46.7892 10.02C47.2559 10.0333 47.7626 10.04 48.3092 10.04C50.5359 10.04 52.1826 9.98 53.2492 9.86L53.3092 9.96C53.2826 10.1067 53.2226 10.44 53.1292 10.96C53.0359 11.48 52.9692 12.04 52.9292 12.64L51.9692 12.72C51.9692 12.6667 51.9759 12.58 51.9892 12.46C52.0026 12.3267 52.0092 12.1933 52.0092 12.06C52.0092 11.7133 51.9559 11.4733 51.8492 11.34C51.7559 11.1933 51.5492 11.1 51.2292 11.06C50.9226 11.0067 50.3826 10.98 49.6092 10.98C49.2492 10.98 49.0026 10.9933 48.8692 11.02C48.7359 11.0333 48.6492 11.08 48.6092 11.16C48.5692 11.2267 48.5426 11.36 48.5292 11.56L48.4092 14.4L50.0492 14.42C50.2892 14.42 50.6426 14.4 51.1092 14.36C51.5759 14.3067 51.8826 14.2733 52.0292 14.26L52.1092 14.36L51.8692 15.4C51.7226 15.4 51.4292 15.3933 50.9892 15.38C50.5626 15.3667 50.1092 15.36 49.6292 15.36C49.2559 15.36 48.8359 15.3933 48.3692 15.46C48.3292 16.4733 48.3092 17.3867 48.3092 18.2C48.3092 18.5067 48.3292 18.72 48.3692 18.84C48.4226 18.96 48.5292 19.04 48.6892 19.08C48.8626 19.12 49.1426 19.14 49.5292 19.14C50.3959 19.14 51.0159 19.1 51.3892 19.02C51.7626 18.94 52.0226 18.78 52.1692 18.54C52.3292 18.2867 52.4559 17.86 52.5492 17.26L53.4292 17.18L53.5092 17.28C53.4692 17.4267 53.3959 17.7733 53.2892 18.32C53.1959 18.8533 53.1226 19.4133 53.0692 20L52.9492 20.1C52.5892 20.0867 51.8426 20.0667 50.7092 20.04C49.5759 20.0133 48.6559 20 47.9492 20C47.4026 20 46.8959 20.02 46.4292 20.06C45.9626 20.1133 45.6626 20.1467 45.5292 20.16L45.6292 19.32ZM63.2255 20.24C62.9321 20.24 62.6321 20.1133 62.3255 19.86C62.0188 19.5933 61.7388 19.2333 61.4855 18.78L59.8055 15.84H58.5055L58.4655 17.98C58.4655 18.3667 58.4921 18.6467 58.5455 18.82C58.5988 18.98 58.6988 19.0867 58.8455 19.14C59.0055 19.1933 59.2721 19.2267 59.6455 19.24L59.6855 19.3L59.5255 20.06C59.3655 20.0467 59.0721 20.0333 58.6455 20.02C58.2321 20.02 57.8121 20.02 57.3855 20.02C56.9721 20.02 56.6121 20.0267 56.3055 20.04C55.9988 20.0533 55.7921 20.0667 55.6855 20.08L55.8255 19.26C56.3188 19.1933 56.6455 19.08 56.8055 18.92C56.9655 18.76 57.0455 18.46 57.0455 18.02L57.0655 11.64C57.0655 11.32 57.0255 11.1067 56.9455 11C56.8655 10.88 56.7121 10.82 56.4855 10.82L55.9255 10.84L55.8655 10.76L55.9855 10C56.1188 10 56.3721 10.0067 56.7455 10.02C57.1188 10.0333 57.4921 10.04 57.8655 10.04C58.2521 10.04 58.6655 10.0333 59.1055 10.02C59.5455 9.99334 59.8455 9.98 60.0055 9.98C61.0855 9.98 61.9321 10.2067 62.5455 10.66C63.1588 11.1 63.4655 11.7133 63.4655 12.5C63.4655 13.1133 63.2588 13.68 62.8455 14.2C62.4321 14.72 61.8521 15.1467 61.1055 15.48L62.8055 18.04C63.1255 18.52 63.4321 18.86 63.7255 19.06C64.0188 19.26 64.3721 19.36 64.7855 19.36L64.8655 19.46L64.7655 20.08L63.2255 20.24ZM60.1655 14.96C60.4188 14.8533 60.6388 14.7533 60.8255 14.66C61.0255 14.5533 61.2455 14.34 61.4855 14.02C61.7255 13.7 61.8455 13.2867 61.8455 12.78C61.8455 11.4867 60.8921 10.84 58.9855 10.84C58.8788 10.84 58.8055 10.8667 58.7655 10.92C58.7255 10.96 58.7055 11.0533 58.7055 11.2C58.5988 12.8267 58.5455 14.0267 58.5455 14.8L60.1655 14.96ZM67.8514 19.36C68.2514 19.2933 68.5447 19.2067 68.7314 19.1C68.9181 18.9933 69.0381 18.84 69.0914 18.64C69.1447 18.44 69.1714 18.14 69.1714 17.74V17.12C69.1714 16.8133 69.1381 16.54 69.0714 16.3C69.0047 16.06 68.8781 15.76 68.6914 15.4L67.1914 12.52C66.9381 12.04 66.7447 11.7067 66.6114 11.52C66.4781 11.32 66.3047 11.16 66.0914 11.04C65.8781 10.92 65.5714 10.84 65.1714 10.8L65.1314 10.72L65.2514 10C65.3714 10 65.6114 10.0067 65.9714 10.02C66.3447 10.0333 66.7314 10.04 67.1314 10.04C67.5047 10.04 67.9581 10.0267 68.4914 10C69.0247 9.96 69.3714 9.93334 69.5314 9.92L69.5914 10.04L69.5314 10.7C69.0781 10.7267 68.7647 10.78 68.5914 10.86C68.4314 10.9267 68.3514 11.0533 68.3514 11.24C68.3514 11.4133 68.5847 11.9867 69.0514 12.96C69.5314 13.9333 69.8714 14.6133 70.0714 15H70.1714L71.8914 11.92C72.0647 11.6133 72.1514 11.36 72.1514 11.16C72.1514 10.9067 71.8247 10.76 71.1714 10.72L71.1314 10.66L71.2314 9.94C71.3114 9.94 71.5781 9.96 72.0314 10C72.4847 10.0267 72.8581 10.04 73.1514 10.04C73.4981 10.04 73.8181 10.0333 74.1114 10.02C74.4047 10.0067 74.6047 9.99334 74.7114 9.98L74.7714 10.1L74.6714 10.78C74.3114 10.86 74.0314 10.9667 73.8314 11.1C73.6314 11.2333 73.4514 11.4067 73.2914 11.62C73.1447 11.8333 72.8981 12.2267 72.5514 12.8L70.9314 15.56C70.7847 15.84 70.6914 16.1467 70.6514 16.48C70.6114 16.8133 70.5914 17.4133 70.5914 18.28C70.5914 18.6267 70.6447 18.8667 70.7514 19C70.8581 19.1333 71.0514 19.2 71.3314 19.2C71.5047 19.2 71.6647 19.1933 71.8114 19.18C71.9714 19.1667 72.0781 19.16 72.1314 19.16L72.1714 19.22L72.0114 20.06C71.8514 20.0467 71.5514 20.0333 71.1114 20.02C70.6714 20.0067 70.2247 20 69.7714 20C69.4247 20 69.0314 20.02 68.5914 20.06C68.1514 20.1133 67.8647 20.1533 67.7314 20.18L67.8514 19.36Z"/>
<line x1="75" y1="0.500003" x2="40" y2="0.5" />
<line y1="28.5" x2="40" y2="28.5" />
</svg>
